<svg width="75" height="29" viewBox="0 0 75 29" fill="none" xmlns="http://www.w3.org/2000/svg">
<rect width="75" height="29" rx="14.5" fill="#CCE6FF"/>
<path d="M21.018 12.546C19.9167 12.3873 18.9787 12.0887 18.204 11.65C17.4387 11.2113 16.846 10.6793 16.426 10.054C16.006 10.6793 15.4133 11.2113 14.648 11.65C13.8827 12.0887 12.9493 12.3873 11.848 12.546L11.176 11.104C11.8947 11.0107 12.52 10.8567 13.052 10.642C13.5933 10.418 14.0413 10.1613 14.396 9.872C14.76 9.58267 15.0307 9.27 15.208 8.934C15.3853 8.58867 15.474 8.248 15.474 7.912V7.534H17.378V7.912C17.378 8.248 17.4667 8.58867 17.644 8.934C17.8213 9.27 18.0873 9.58267 18.442 9.872C18.806 10.1613 19.254 10.418 19.786 10.642C20.3273 10.8567 20.9573 11.0107 21.676 11.104L21.018 12.546ZM22.25 13.232V14.688H10.602V13.232H22.25ZM16.398 15.542C17.7887 15.542 18.8807 15.7473 19.674 16.158C20.4767 16.5593 20.878 17.1333 20.878 17.88C20.878 18.636 20.4767 19.2147 19.674 19.616C18.8807 20.0267 17.7887 20.232 16.398 20.232C15.0073 20.232 13.9153 20.0267 13.122 19.616C12.3287 19.2147 11.932 18.636 11.932 17.88C11.932 17.1333 12.3287 16.5593 13.122 16.158C13.9153 15.7473 15.0073 15.542 16.398 15.542ZM16.398 18.832C18.134 18.832 19.002 18.5147 19.002 17.88C19.002 17.2453 18.134 16.928 16.398 16.928C14.662 16.928 13.794 17.2453 13.794 17.88C13.794 18.5147 14.662 18.832 16.398 18.832ZM34.1909 16.578H32.3289V7.324H34.1909V16.578ZM30.6769 11.412C30.6769 11.8787 30.5882 12.3127 30.4109 12.714C30.2336 13.1153 29.9862 13.4607 29.6689 13.75C29.3516 14.0393 28.9782 14.268 28.5489 14.436C28.1289 14.5947 27.6716 14.674 27.1769 14.674C26.6822 14.674 26.2202 14.5947 25.7909 14.436C25.3616 14.268 24.9882 14.0393 24.6709 13.75C24.3629 13.4607 24.1156 13.1153 23.9289 12.714C23.7516 12.3127 23.6629 11.8787 23.6629 11.412C23.6629 10.936 23.7516 10.4973 23.9289 10.096C24.1156 9.69467 24.3629 9.34933 24.6709 9.06C24.9882 8.77067 25.3616 8.54667 25.7909 8.388C26.2202 8.22 26.6822 8.136 27.1769 8.136C27.6716 8.136 28.1289 8.22 28.5489 8.388C28.9782 8.54667 29.3516 8.77067 29.6689 9.06C29.9862 9.34933 30.2336 9.69467 30.4109 10.096C30.5882 10.4973 30.6769 10.936 30.6769 11.412ZM25.4689 11.412C25.4689 11.944 25.6322 12.3547 25.9589 12.644C26.2949 12.9333 26.7009 13.078 27.1769 13.078C27.6622 13.078 28.0636 12.9333 28.3809 12.644C28.7076 12.3547 28.8709 11.944 28.8709 11.412C28.8709 10.88 28.7076 10.4693 28.3809 10.18C28.0636 9.88133 27.6622 9.732 27.1769 9.732C26.7009 9.732 26.2949 9.88133 25.9589 10.18C25.6322 10.4693 25.4689 10.88 25.4689 11.412ZM34.5129 18.51V19.98H25.6089V15.668H27.4569V18.51H34.5129ZM51.3757 11.356V12.882H49.7517V17.152H47.9037V7.31H49.7517V11.356H51.3757ZM47.3437 14.94C46.6904 15.0613 46.023 15.1593 45.3417 15.234C44.6697 15.2993 44.0024 15.3507 43.3397 15.388C42.6864 15.4253 42.0517 15.4487 41.4357 15.458C40.8197 15.4673 40.2457 15.472 39.7137 15.472L39.4897 14.002C39.9377 14.002 40.409 14.002 40.9037 14.002C41.4077 14.002 41.9257 13.9927 42.4577 13.974V12.98C41.7577 12.8307 41.1977 12.532 40.7777 12.084C40.367 11.636 40.1617 11.09 40.1617 10.446C40.1617 10.0633 40.241 9.71333 40.3997 9.396C40.5584 9.06933 40.7777 8.794 41.0577 8.57C41.347 8.33667 41.6877 8.15467 42.0797 8.024C42.4717 7.89333 42.901 7.828 43.3677 7.828C43.8344 7.828 44.2637 7.89333 44.6557 8.024C45.057 8.15467 45.3977 8.33667 45.6777 8.57C45.967 8.794 46.191 9.06933 46.3497 9.396C46.5084 9.71333 46.5877 10.0633 46.5877 10.446C46.5877 11.09 46.3824 11.636 45.9717 12.084C45.561 12.5227 45.0057 12.8213 44.3057 12.98V13.904C44.8097 13.876 45.3044 13.8433 45.7897 13.806C46.275 13.7687 46.7557 13.7127 47.2317 13.638L47.3437 14.94ZM41.8837 10.446C41.8837 10.838 42.019 11.1413 42.2897 11.356C42.5604 11.5707 42.9197 11.678 43.3677 11.678C43.8157 11.678 44.1797 11.5707 44.4597 11.356C44.7397 11.1413 44.8797 10.838 44.8797 10.446C44.8797 10.054 44.7397 9.75067 44.4597 9.536C44.1797 9.32133 43.8157 9.214 43.3677 9.214C42.9197 9.214 42.5604 9.32133 42.2897 9.536C42.019 9.75067 41.8837 10.054 41.8837 10.446ZM43.0177 18.51H50.1857V19.98H41.1697V16.312H43.0177V18.51ZM64.0866 17.278V18.79H52.3966V17.278H55.3646V15.318H53.7546V10.978H60.9506V9.606H53.7406V8.136H62.7706V12.42H55.5886V13.834H63.0646V15.318H61.2586V17.278H64.0866ZM57.1846 17.278H59.4386V15.318H57.1846V17.278Z" fill="#0080FF"/>
</svg>
