<svg width="23" height="22" viewBox="0 0 23 22" fill="none" xmlns="http://www.w3.org/2000/svg">
<path d="M11.5046 5.38452C8.39917 5.38452 5.89429 7.8894 5.89429 10.9949C5.89429 14.1003 8.39917 16.6052 11.5046 16.6052C14.6101 16.6052 17.115 14.1003 17.115 10.9949C17.115 7.8894 14.6101 5.38452 11.5046 5.38452ZM11.5046 14.6423C9.4978 14.6423 7.85718 13.0066 7.85718 10.9949C7.85718 8.98315 9.49292 7.34741 11.5046 7.34741C13.5164 7.34741 15.1521 8.98315 15.1521 10.9949C15.1521 13.0066 13.5115 14.6423 11.5046 14.6423ZM18.6531 5.15503C18.6531 5.88257 18.0671 6.46362 17.3445 6.46362C16.6169 6.46362 16.0359 5.87769 16.0359 5.15503C16.0359 4.43237 16.6218 3.84644 17.3445 3.84644C18.0671 3.84644 18.6531 4.43237 18.6531 5.15503ZM22.3689 6.48315C22.2859 4.73022 21.8855 3.17749 20.6013 1.89819C19.322 0.618896 17.7693 0.218506 16.0164 0.130615C14.2097 0.0280762 8.79468 0.0280762 6.98804 0.130615C5.23999 0.213623 3.68726 0.614014 2.40308 1.89331C1.1189 3.17261 0.723389 4.72534 0.635498 6.47827C0.532959 8.28491 0.532959 13.7 0.635498 15.5066C0.718506 17.2595 1.1189 18.8123 2.40308 20.0916C3.68726 21.3708 5.23511 21.7712 6.98804 21.8591C8.79468 21.9617 14.2097 21.9617 16.0164 21.8591C17.7693 21.7761 19.322 21.3757 20.6013 20.0916C21.8806 18.8123 22.281 17.2595 22.3689 15.5066C22.4714 13.7 22.4714 8.28979 22.3689 6.48315ZM20.0349 17.4451C19.6541 18.4021 18.9167 19.1394 17.9548 19.5251C16.5144 20.0964 13.0964 19.9646 11.5046 19.9646C9.91284 19.9646 6.48999 20.0916 5.05444 19.5251C4.09741 19.1443 3.36011 18.407 2.97437 17.4451C2.40308 16.0046 2.53491 12.5867 2.53491 10.9949C2.53491 9.40308 2.40796 5.98022 2.97437 4.54468C3.35522 3.58765 4.09253 2.85034 5.05444 2.4646C6.49487 1.89331 9.91284 2.02515 11.5046 2.02515C13.0964 2.02515 16.5193 1.89819 17.9548 2.4646C18.9119 2.84546 19.6492 3.58276 20.0349 4.54468C20.6062 5.98511 20.4744 9.40308 20.4744 10.9949C20.4744 12.5867 20.6062 16.0095 20.0349 17.4451Z" fill="#A4A1AA"/>
</svg>
