<svg width="23" height="22" viewBox="0 0 23 22" fill="none" xmlns="http://www.w3.org/2000/svg">
<path d="M20.0938 0.0625H2.90625C1.61182 0.0625 0.5625 1.11182 0.5625 2.40625V19.5938C0.5625 20.8882 1.61182 21.9375 2.90625 21.9375H20.0938C21.3882 21.9375 22.4375 20.8882 22.4375 19.5938V2.40625C22.4375 1.11182 21.3882 0.0625 20.0938 0.0625ZM9.25962 11.298C4.83149 8.08433 4.87661 8.07622 3.6875 7.15073V5.92188C3.6875 5.27466 4.21216 4.75 4.85938 4.75H18.1406C18.7878 4.75 19.3125 5.27466 19.3125 5.92188V7.15073C18.1225 8.07695 18.1683 8.08452 13.7404 11.2981C13.2277 11.6719 12.2076 12.5735 11.5 12.5625C10.7918 12.5731 9.7731 11.6725 9.25962 11.298ZM19.3125 9.13354V16.0781C19.3125 16.7253 18.7878 17.25 18.1406 17.25H4.85938C4.21216 17.25 3.6875 16.7253 3.6875 16.0781V9.13354C4.36904 9.66059 5.31489 10.3658 8.34097 12.562C9.03247 13.0669 10.1952 14.1315 11.4999 14.125C12.8127 14.1315 13.9919 13.0487 14.66 12.5612C17.6853 10.3657 18.631 9.66055 19.3125 9.13354Z" fill="#A4A1AA"/>
</svg>
