<svg width="59" height="29" viewBox="0 0 59 29" fill="none" xmlns="http://www.w3.org/2000/svg">
<rect width="59" height="29" rx="14.5" fill="#D4F7D4"/>
<path d="M21.662 7.296V20.204H19.912V13.75H18.75V19.602H17.028V7.548H18.75V12.266H19.912V7.296H21.662ZM12.786 15.78C13.402 15.7613 13.99 15.7333 14.55 15.696C15.11 15.6493 15.698 15.57 16.314 15.458L16.454 16.956C15.6607 17.1053 14.9 17.2033 14.172 17.25C13.4533 17.2873 12.6833 17.306 11.862 17.306H10.966V8.794H15.74V10.292H12.786V15.78ZM34.2189 7.296V20.19H32.3569V7.296H34.2189ZM30.3829 8.64C30.3829 9.62 30.2896 10.558 30.1029 11.454C29.9162 12.35 29.5942 13.1947 29.1369 13.988C28.6889 14.772 28.0869 15.5047 27.3309 16.186C26.5749 16.858 25.6229 17.4693 24.4749 18.02L23.5089 16.564C24.3302 16.172 25.0396 15.752 25.6369 15.304C26.2342 14.8467 26.7336 14.352 27.1349 13.82C27.5362 13.288 27.8442 12.714 28.0589 12.098C28.2829 11.482 28.4276 10.8193 28.4929 10.11H24.1949V8.64H30.3829ZM36.8638 11.23C38.0585 11.118 38.9778 10.88 39.6218 10.516C40.2658 10.152 40.6718 9.75067 40.8398 9.312H37.4238V7.842H46.9578V9.312H43.5278C43.6958 9.75067 44.1018 10.152 44.7458 10.516C45.3898 10.88 46.3138 11.118 47.5178 11.23L46.8738 12.658C45.6511 12.5553 44.6478 12.294 43.8638 11.874C43.0891 11.454 42.5291 10.936 42.1838 10.32C41.8385 10.936 41.2785 11.454 40.5038 11.874C39.7385 12.294 38.7305 12.5553 37.4798 12.658L36.8638 11.23ZM43.1078 14.632V15.584C44.2371 15.6773 45.1051 15.9153 45.7118 16.298C46.3278 16.6807 46.6358 17.208 46.6358 17.88C46.6358 18.6267 46.2345 19.2007 45.4318 19.602C44.6385 20.0127 43.5465 20.218 42.1558 20.218C40.7651 20.218 39.6731 20.0127 38.8798 19.602C38.0865 19.2007 37.6898 18.6267 37.6898 17.88C37.6898 17.208 38.0025 16.6807 38.6278 16.298C39.2531 15.906 40.1305 15.6633 41.2598 15.57V14.632H36.3598V13.162H48.0078V14.632H43.1078ZM44.7598 17.88C44.7598 17.5533 44.5451 17.3153 44.1158 17.166C43.6865 17.0167 43.0331 16.942 42.1558 16.942C41.2785 16.942 40.6251 17.0167 40.1958 17.166C39.7665 17.3153 39.5518 17.5533 39.5518 17.88C39.5518 18.2067 39.7665 18.4447 40.1958 18.594C40.6251 18.734 41.2785 18.804 42.1558 18.804C43.0331 18.804 43.6865 18.734 44.1158 18.594C44.5451 18.4447 44.7598 18.2067 44.7598 17.88Z" fill="#20A81E"/>
</svg>
