<svg width="46" height="29" viewBox="0 0 46 29" fill="none" xmlns="http://www.w3.org/2000/svg">
<rect width="46" height="29" rx="14.5" fill="#FFEBE7"/>
<path d="M21.382 7.31V20.204H19.534V13.75H17.042V12.252H19.534V7.31H21.382ZM17.126 8.64C17.126 9.61067 17.0373 10.5393 16.86 11.426C16.6827 12.3127 16.3747 13.148 15.936 13.932C15.5067 14.716 14.9233 15.4487 14.186 16.13C13.458 16.802 12.5387 17.418 11.428 17.978L10.448 16.55C11.2507 16.1487 11.9413 15.7193 12.52 15.262C13.0987 14.8047 13.5793 14.31 13.962 13.778C14.3447 13.246 14.6387 12.6767 14.844 12.07C15.0493 11.4633 15.1847 10.81 15.25 10.11H11.064V8.64H17.126ZM32.4129 9.942V7.31H34.2609V13.862H32.4129V11.412H30.4529V9.942H32.4129ZM30.3129 13.876C29.5849 13.6707 28.9782 13.3673 28.4929 12.966C28.0169 12.5647 27.6342 12.098 27.3449 11.566C27.0556 12.154 26.6542 12.6767 26.1409 13.134C25.6276 13.5913 24.9929 13.9273 24.2369 14.142L23.3689 12.7C23.8729 12.5507 24.3069 12.35 24.6709 12.098C25.0442 11.846 25.3522 11.566 25.5949 11.258C25.8469 10.9407 26.0382 10.6093 26.1689 10.264C26.2996 9.91867 26.3742 9.58267 26.3929 9.256H23.8589V7.786H30.7889V9.256H28.2689C28.2782 9.57333 28.3436 9.89533 28.4649 10.222C28.5862 10.5393 28.7636 10.838 28.9969 11.118C29.2396 11.398 29.5382 11.6547 29.8929 11.888C30.2569 12.112 30.6816 12.294 31.1669 12.434L30.3129 13.876ZM34.6249 18.636V20.064H25.7769V16.522H32.4269V15.808H25.7489V14.38H34.2609V17.852H27.5969V18.636H34.6249Z" fill="#FF4040"/>
</svg>
